HIERARCHY
ROOT Hips
{
  OFFSET 0 0 0
  CHANNELS 6 Xposition Yposition Zposition Zrotation Yrotation Xrotation
  JOINT LeftThigh
  {
    OFFSET 8.409438 0 -5.917753
    CHANNELS 3 Zrotation Yrotation Xrotation
    JOINT LeftLeg
    {
      OFFSET 0 0 -42.358652
      CHANNELS 3 Zrotation Yrotation Xrotation
      JOINT LeftFoot
      {
        OFFSET 0 0 -39.357303
        CHANNELS 3 Zrotation Yrotation Xrotation
      }
    }
  }
  JOINT RightThigh
  {
    OFFSET -8.409438 0 -5.917753
    CHANNELS 3 Zrotation Yrotation Xrotation
    JOINT RightLeg
    {
      OFFSET 0 0 -42.358652
      CHANNELS 3 Zrotation Yrotation Xrotation
      JOINT RightFoot
      {
        OFFSET 0 0 -39.357303
        CHANNELS 3 Zrotation Yrotation Xrotation
      }
    }
  }
  JOINT SpineLow
  {
    OFFSET 0 0 4.719101
    CHANNELS 3 Zrotation Yrotation Xrotation
    JOINT SpineMid
    {
      OFFSET 0 0 12.899191
      CHANNELS 3 Zrotation Yrotation Xrotation
      JOINT Chest
      {
        OFFSET 0 0 12.899191
        CHANNELS 3 Zrotation Yrotation Xrotation
        JOINT LeftShoulder
        {
          OFFSET 7.550562 1.41573 9.438202
          CHANNELS 3 Zrotation Yrotation Xrotation
          JOINT LeftArm
          {
            OFFSET 9.155056 0 4.247191
            CHANNELS 3 Zrotation Yrotation Xrotation
            JOINT LeftForearm
            {
              OFFSET 0 0 25.771955
              CHANNELS 3 Zrotation Yrotation Xrotation
              JOINT LeftHand
              {
                OFFSET 0 0 25.197169
                CHANNELS 3 Zrotation Yrotation Xrotation
              }
            }
          }
        }
        JOINT RightShoulder
        {
          OFFSET -7.550562 1.41573 9.438202
          CHANNELS 3 Zrotation Yrotation Xrotation
          JOINT RightArm
          {
            OFFSET -9.155056 0 4.247191
            CHANNELS 3 Zrotation Yrotation Xrotation
            JOINT RightForearm
            {
              OFFSET 0 0 -25.771955
              CHANNELS 3 Zrotation Yrotation Xrotation
              JOINT RightHand
              {
                OFFSET 0 0 -25.197169
                CHANNELS 3 Zrotation Yrotation Xrotation
              }
            }
          }
        }
        JOINT Neck
        {
          OFFSET 0 0 15.101124
          CHANNELS 3 Zrotation Yrotation Xrotation
          JOINT Head
          {
            OFFSET 0 0 11.325843
            CHANNELS 3 Zrotation Yrotation Xrotation
            End Site
            {
              OFFSET 0 0 14.157303
            }
          }
        }
      }
    }
  }
}
MOTION
Frames: 10
Frame Time: 0.0
0.0  93.25843  0.0  -1.185878  -32.18861  -92.604632  19.68446  -11.75392  5.158697  7.956893  -2.100329  8.351011  6.37753  0.402438  1.553904  -5.768231  0.492802  -8.037989  -9.1066  3.896026  0.023767  5.989613  0.929279  0.875104  2.073426  -1.847017  0.927846  5.605907  -5.123191  2.379878  5.605907  -5.12319  2.379878  -23.144948  30.820771  -13.84198  149.233351  39.891695  -162.06855  49.401361  -9.036005  43.587068  95.547593  29.97955  -5.123461  5.07294  0.406442  23.201663  109.670381  40.223832  40.272701  -4.022094  -29.914473  -110.602207  80.197754  33.167085  25.196066  -1.134849  6.449619  2.717397  -0.879042  4.832308  2.047919  
0.0  93.25843  0.0  -1.058621  -32.135118  -92.590592  19.426206  -11.604964  5.079895  8.08089  -2.099086  8.416472  6.447131  0.448275  1.553188  -5.636139  0.643387  -8.097811  -9.076757  3.903717  0.075089  5.871538  0.905335  0.846116  2.058232  -1.815179  0.934268  5.564692  -5.036261  2.401223  5.564692  -5.036261  2.401223  -22.944654  30.54438  -13.810766  149.223178  39.835307  -161.906162  49.429131  -9.01357  43.734104  95.437322  30.011446  -4.818019  5.256524  0.314602  23.12627  109.594483  40.147487  40.231247  -3.972452  -29.955763  -110.512775  80.459569  33.29938  25.50772  -1.116181  6.416913  2.629411  -0.863988  4.808014  1.981762  
0.0  93.25843  0.0  -1.025418  -32.191845  -92.600561  19.404079  -11.547624  5.080934  8.083716  -2.095094  8.434557  6.51851  0.476622  1.550261  -5.573529  0.67106  -8.131141  -9.079975  3.926486  0.101188  5.864767  0.908861  0.83585  2.056518  -1.800758  0.958708  5.558536  -4.998855  2.469389  5.558536  -4.998856  2.469389  -22.812561  30.339187  -13.855989  149.267862  39.800871  -161.85811  49.368954  -8.947696  43.75889  95.358814  29.97801  -4.68072  5.332988  0.249823  22.981125  109.464498  40.123616  40.182424  -3.941878  -29.985761  -110.421424  80.516531  33.361773  25.590047  -1.086651  6.38047  2.535068  -0.840725  4.780967  1.910724  
0.0  93.25843  0.0  -0.901232  -32.275155  -92.620033  19.357755  -11.42739  5.053932  8.174595  -2.082913  8.504301  6.524398  0.498996  1.536666  -5.394497  0.795084  -8.157929  -9.039822  3.947813  0.128999  5.825853  0.904533  0.81616  2.029645  -1.769194  0.974293  5.484721  -4.91298  2.516607  5.48472  -4.912979  2.516606  -22.565264  30.063817  -13.877594  148.77121  39.742335  -161.832233  49.07903  -8.863849  43.606513  95.251794  30.034917  -4.299559  5.734715  0.144449  22.968958  109.286999  40.109133  40.128915  -3.668997  -30.024041  -110.41679  80.889619  33.537465  26.018759  -0.959319  6.343109  2.45481  -0.744338  4.753589  1.84922  
0.0  93.25843  0.0  -0.874973  -32.386189  -92.626529  19.404761  -11.400762  5.049138  8.176504  -2.048328  8.541057  6.564956  0.51559  1.534884  -5.389505  0.790937  -8.192803  -8.979342  3.98684  0.154224  5.830401  0.911413  0.795245  2.02133  -1.763594  0.997832  5.460359  -4.899312  2.582077  5.460359  -4.899312  2.582077  -22.413188  29.946189  -13.943994  148.663207  39.696407  -161.869218  48.998383  -8.848067  43.506947  95.149254  30.004082  -4.114048  5.894732  0.099291  22.88411  109.208361  40.082446  40.147801  -3.642945  -30.071969  -110.320334  80.959041  33.634435  26.099115  -0.888588  6.34711  2.375873  -0.690534  4.75698  1.789344  
0.0  93.25843  0.0  -0.800372  -32.457199  -92.609963  19.277864  -11.331681  4.971446  8.258304  -2.00748  8.619153  6.609191  0.536107  1.562561  -5.455556  0.832358  -8.276119  -8.848102  4.025762  0.189767  5.74698  0.900879  0.758772  1.991802  -1.744113  1.003439  5.37972  -4.845455  2.601157  5.379719  -4.845455  2.601157  -22.251265  29.71557  -13.95463  148.410506  39.63186  -161.837911  48.836735  -8.850331  43.363465  94.98648  30.068067  -3.809017  6.378124  -0.006901  23.025201  108.966102  40.208742  40.131471  -3.649968  -30.127418  -110.195083  81.105772  33.699217  26.229636  -0.752614  6.344774  2.332285  -0.588194  4.755803  1.755266  
0.0  93.25843  0.0  -0.776977  -32.589976  -92.619758  19.320199  -11.311254  4.977977  8.252692  -1.960686  8.662617  6.635982  0.55131  1.559465  -5.483413  0.817437  -8.302859  -8.746676  4.071733  0.225697  5.761781  0.904364  0.725489  1.988846  -1.739196  1.021942  5.370414  -4.833404  2.652379  5.370414  -4.833404  2.652379  -22.147153  29.610639  -13.993837  148.348596  39.61647  -161.855122  48.800389  -8.84452  43.277073  94.87324  30.058131  -3.680779  6.47886  -0.061194  22.984295  109.008133  40.176463  40.194448  -3.721017  -30.132012  -110.037558  81.23221  33.717331  26.351115  -0.686759  6.365824  2.281143  -0.538395  4.771894  1.716275  
0.0  93.25843  0.0  -0.725649  -32.648996  -92.598527  19.062814  -11.254486  4.866593  8.362554  -1.928512  8.779581  6.629615  0.575882  1.559788  -5.735045  0.797511  -8.418514  -8.775799  4.10593  0.238921  6.047462  0.895678  0.752253  1.968404  -1.730773  1.027444  5.314325  -4.81005  2.669598  5.314325  -4.81005  2.669598  -22.047699  29.441936  -14.014851  148.267094  39.581115  -161.80407  48.688287  -8.863052  43.214568  94.783946  30.093133  -3.42028  6.789523  -0.124324  23.086934  108.926766  40.244684  40.224823  -3.980908  -30.091085  -109.780973  81.305317  33.662423  26.422086  -0.600379  6.396275  2.245569  -0.473412  4.795086  1.688731  
0.0  93.25843  0.0  -0.708958  -32.794123  -92.606292  19.038569  -11.283639  4.861632  8.360337  -1.836298  8.847117  6.644129  0.595572  1.561563  -5.78144  0.75712  -8.437336  -8.63786  4.187319  0.311224  6.075781  0.896443  0.703671  1.967866  -1.726646  1.042584  5.311874  -4.799962  2.711376  5.311874  -4.799962  2.711376  -21.949869  29.351092  -14.025974  148.246868  39.592216  -161.78935  48.615391  -8.877067  43.162425  94.65807  30.119462  -3.313804  6.85495  -0.194791  23.045569  108.962498  40.235625  40.264765  -4.061441  -30.054998  -109.585371  81.489528  33.586098  26.594589  -0.527622  6.406742  2.214486  -0.41861  4.803226  1.664682  
0.0  93.25843  0.0  -0.654617  -32.973373  -92.638084  18.772616  -11.287309  4.781835  8.625956  -1.74099  9.075367  6.59196  0.600574  1.523457  -6.030098  0.688809  -8.5187  -8.62531  4.289904  0.356854  6.455588  0.897819  0.744912  1.955953  -1.717544  1.058441  5.278411  -4.77589  2.756331  5.278411  -4.77589  2.756331  -21.629121  29.269882  -13.970996  148.398135  39.550966  -161.688237  48.579086  -8.958811  43.137869  94.612287  30.063049  -3.127772  7.046451  -0.261736  23.007157  108.91536  40.256845  40.255001  -4.164401  -30.021637  -109.369151  81.63064  33.482425  26.742534  -0.395508  6.415834  2.183154  -0.319329  4.81054  1.639818  
